<svg width="100" height="100" viewBox="0 0 100 100" fill="none" xmlns="http://www.w3.org/2000/svg">
<path fill-rule="evenodd" clip-rule="evenodd" d="M50 100C77.6142 100 100 77.6142 100 50C100 22.3858 77.6142 0 50 0C22.3858 0 0 22.3858 0 50C0 77.6142 22.3858 100 50 100ZM67.801 30.2342L71.9808 26.9647C72.9571 26.1587 74.1462 25.6541 75.4036 25.512C76.661 25.37 77.9325 25.5968 79.0636 26.1647C80.1946 26.7327 81.1366 27.6174 81.7749 28.7113C82.4132 29.8052 82.7203 31.0612 82.659 32.3267V70.2201C82.659 71.3994 82.1911 72.5304 81.3582 73.3643C80.5254 74.1982 79.3958 74.6667 78.2179 74.6667H67.801V49.4261L50.0041 62.7984L32.2071 49.4261V74.6667H21.7902C20.6124 74.6667 19.4828 74.1982 18.6499 73.3643C17.817 72.5304 17.3491 71.3994 17.3491 70.2201V32.3267C17.2603 31.0502 17.5475 29.7758 18.1751 28.6611C18.8027 27.5465 19.7431 26.6408 20.8798 26.056C22.0165 25.4713 23.2996 25.2334 24.5701 25.3716C25.8406 25.5099 27.0426 26.0183 28.0273 26.8339L32.2071 30.1034L50.0041 43.4757L67.801 30.2342Z" fill="#E570A5"/>
</svg>
