<svg width="100" height="100" viewBox="0 0 100 100" fill="none" xmlns="http://www.w3.org/2000/svg">
<path fill-rule="evenodd" clip-rule="evenodd" d="M50 100C77.6142 100 100 77.6142 100 50C100 22.3858 77.6142 0 50 0C22.3858 0 0 22.3858 0 50C0 77.6142 22.3858 100 50 100ZM81.3333 36.84C81.3333 26.8133 73.1867 18.6667 63.16 18.6667H36.84C32.0201 18.6667 27.3977 20.5814 23.9895 23.9895C20.5813 27.3977 18.6667 32.0201 18.6667 36.84V63.16C18.6667 73.1867 26.8133 81.3333 36.84 81.3333H63.16C67.9799 81.3333 72.6023 79.4187 76.0105 76.0105C79.4186 72.6023 81.3333 67.9799 81.3333 63.16V36.84ZM28.2372 28.2372C30.3526 26.1218 33.2217 24.9333 36.2133 24.9333H63.7867C70.022 24.9333 75.0667 29.978 75.0667 36.2133V63.7867C75.0667 66.7783 73.8782 69.6474 71.7628 71.7628C69.6474 73.8782 66.7783 75.0667 63.7867 75.0667H36.2133C29.978 75.0667 24.9333 70.022 24.9333 63.7867V36.2133C24.9333 33.2217 26.1217 30.3526 28.2372 28.2372ZM69.2195 30.7805C68.485 30.046 67.4888 29.6333 66.45 29.6333C65.4112 29.6333 64.415 30.046 63.6805 30.7805C62.946 31.515 62.5333 32.5112 62.5333 33.55C62.5333 34.5888 62.946 35.585 63.6805 36.3195C64.415 37.054 65.4112 37.4667 66.45 37.4667C67.4888 37.4667 68.485 37.054 69.2195 36.3195C69.954 35.585 70.3667 34.5888 70.3667 33.55C70.3667 32.5112 69.954 31.515 69.2195 30.7805ZM61.078 38.922C58.1399 35.9839 54.155 34.3333 50 34.3333C45.8449 34.3333 41.8601 35.9839 38.922 38.922C35.9839 41.8601 34.3333 45.8449 34.3333 50C34.3333 54.1551 35.9839 58.1399 38.922 61.078C41.8601 64.0161 45.8449 65.6667 50 65.6667C54.155 65.6667 58.1399 64.0161 61.078 61.078C64.0161 58.1399 65.6667 54.1551 65.6667 50C65.6667 45.8449 64.0161 41.8601 61.078 38.922ZM43.3532 43.3532C45.116 41.5904 47.507 40.6 50 40.6C52.493 40.6 54.884 41.5904 56.6468 43.3532C58.4096 45.116 59.4 47.507 59.4 50C59.4 52.493 58.4096 54.884 56.6468 56.6468C54.884 58.4096 52.493 59.4 50 59.4C47.507 59.4 45.116 58.4096 43.3532 56.6468C41.5903 54.884 40.6 52.493 40.6 50C40.6 47.507 41.5903 45.116 43.3532 43.3532Z" fill="#E570A5"/>
</svg>
