<svg width="128" height="17" viewBox="0 0 128 17" fill="none" xmlns="http://www.w3.org/2000/svg">
<path d="M0.68 13V1.8H2.28V11.608H8.344V13H0.68ZM13.4786 13.096C12.6253 13.096 11.868 12.9093 11.2066 12.536C10.5453 12.1627 10.0226 11.6507 9.63863 11C9.25463 10.3387 9.06263 9.592 9.06263 8.76C9.06263 7.91733 9.25463 7.17067 9.63863 6.52C10.0226 5.86933 10.5453 5.36267 11.2066 5C11.868 4.62667 12.6253 4.44 13.4786 4.44C14.3213 4.44 15.0733 4.62667 15.7346 5C16.4066 5.36267 16.9293 5.86933 17.3026 6.52C17.6866 7.16 17.8786 7.90667 17.8786 8.76C17.8786 9.60267 17.6866 10.3493 17.3026 11C16.9293 11.6507 16.4066 12.1627 15.7346 12.536C15.0733 12.9093 14.3213 13.096 13.4786 13.096ZM13.4786 11.752C14.0226 11.752 14.508 11.6293 14.9346 11.384C15.372 11.1387 15.7133 10.792 15.9586 10.344C16.204 9.88533 16.3266 9.35733 16.3266 8.76C16.3266 8.152 16.204 7.62933 15.9586 7.192C15.7133 6.744 15.372 6.39733 14.9346 6.152C14.508 5.90667 14.0226 5.784 13.4786 5.784C12.9346 5.784 12.4493 5.90667 12.0226 6.152C11.596 6.39733 11.2546 6.744 10.9986 7.192C10.7426 7.62933 10.6146 8.152 10.6146 8.76C10.6146 9.35733 10.7426 9.88533 10.9986 10.344C11.2546 10.792 11.596 11.1387 12.0226 11.384C12.4493 11.6293 12.9346 11.752 13.4786 11.752ZM23.7149 16.2C22.9362 16.2 22.1789 16.088 21.4429 15.864C20.7175 15.6507 20.1255 15.3413 19.6669 14.936L20.4029 13.752C20.7975 14.0933 21.2829 14.36 21.8589 14.552C22.4349 14.7547 23.0375 14.856 23.6669 14.856C24.6695 14.856 25.4055 14.6213 25.8749 14.152C26.3442 13.6827 26.5789 12.968 26.5789 12.008V10.216L26.7389 8.536L26.6589 6.84V4.52H28.1149V11.848C28.1149 13.3413 27.7415 14.44 26.9949 15.144C26.2482 15.848 25.1549 16.2 23.7149 16.2ZM23.5229 12.648C22.7015 12.648 21.9655 12.4773 21.3149 12.136C20.6749 11.784 20.1629 11.2987 19.7789 10.68C19.4055 10.0613 19.2189 9.34667 19.2189 8.536C19.2189 7.71467 19.4055 7 19.7789 6.392C20.1629 5.77333 20.6749 5.29333 21.3149 4.952C21.9655 4.61067 22.7015 4.44 23.5229 4.44C24.2482 4.44 24.9095 4.58933 25.5069 4.888C26.1042 5.176 26.5789 5.624 26.9309 6.232C27.2935 6.84 27.4749 7.608 27.4749 8.536C27.4749 9.45333 27.2935 10.216 26.9309 10.824C26.5789 11.432 26.1042 11.8907 25.5069 12.2C24.9095 12.4987 24.2482 12.648 23.5229 12.648ZM23.6989 11.304C24.2642 11.304 24.7655 11.1867 25.2029 10.952C25.6402 10.7173 25.9815 10.392 26.2269 9.976C26.4829 9.56 26.6109 9.08 26.6109 8.536C26.6109 7.992 26.4829 7.512 26.2269 7.096C25.9815 6.68 25.6402 6.36 25.2029 6.136C24.7655 5.90133 24.2642 5.784 23.6989 5.784C23.1335 5.784 22.6269 5.90133 22.1789 6.136C21.7415 6.36 21.3949 6.68 21.1389 7.096C20.8935 7.512 20.7709 7.992 20.7709 8.536C20.7709 9.08 20.8935 9.56 21.1389 9.976C21.3949 10.392 21.7415 10.7173 22.1789 10.952C22.6269 11.1867 23.1335 11.304 23.6989 11.304ZM31.0498 13V4.52H32.5858V13H31.0498ZM31.8178 2.888C31.5191 2.888 31.2684 2.792 31.0658 2.6C30.8738 2.408 30.7778 2.17333 30.7778 1.896C30.7778 1.608 30.8738 1.368 31.0658 1.176C31.2684 0.984 31.5191 0.888 31.8178 0.888C32.1164 0.888 32.3618 0.984 32.5538 1.176C32.7564 1.35733 32.8578 1.58667 32.8578 1.864C32.8578 2.152 32.7618 2.39733 32.5698 2.6C32.3778 2.792 32.1271 2.888 31.8178 2.888ZM40.0465 4.44C40.7398 4.44 41.3478 4.57333 41.8705 4.84C42.4038 5.10667 42.8198 5.512 43.1185 6.056C43.4172 6.6 43.5665 7.288 43.5665 8.12V13H42.0305V8.296C42.0305 7.47467 41.8278 6.856 41.4225 6.44C41.0278 6.024 40.4678 5.816 39.7425 5.816C39.1985 5.816 38.7238 5.92267 38.3185 6.136C37.9132 6.34933 37.5985 6.664 37.3745 7.08C37.1612 7.496 37.0545 8.01333 37.0545 8.632V13H35.5185V4.52H36.9905V6.808L36.7505 6.2C37.0278 5.64533 37.4545 5.21333 38.0305 4.904C38.6065 4.59467 39.2785 4.44 40.0465 4.44ZM54.338 13.096C53.4847 13.096 52.7273 12.9093 52.066 12.536C51.4047 12.1627 50.882 11.6507 50.498 11C50.114 10.3387 49.922 9.592 49.922 8.76C49.922 7.91733 50.114 7.17067 50.498 6.52C50.882 5.86933 51.4047 5.36267 52.066 5C52.7273 4.62667 53.4847 4.44 54.338 4.44C55.1807 4.44 55.9327 4.62667 56.594 5C57.266 5.36267 57.7887 5.86933 58.162 6.52C58.546 7.16 58.738 7.90667 58.738 8.76C58.738 9.60267 58.546 10.3493 58.162 11C57.7887 11.6507 57.266 12.1627 56.594 12.536C55.9327 12.9093 55.1807 13.096 54.338 13.096ZM54.338 11.752C54.882 11.752 55.3673 11.6293 55.794 11.384C56.2313 11.1387 56.5727 10.792 56.818 10.344C57.0633 9.88533 57.186 9.35733 57.186 8.76C57.186 8.152 57.0633 7.62933 56.818 7.192C56.5727 6.744 56.2313 6.39733 55.794 6.152C55.3673 5.90667 54.882 5.784 54.338 5.784C53.794 5.784 53.3087 5.90667 52.882 6.152C52.4553 6.39733 52.114 6.744 51.858 7.192C51.602 7.62933 51.474 8.152 51.474 8.76C51.474 9.35733 51.602 9.88533 51.858 10.344C52.114 10.792 52.4553 11.1387 52.882 11.384C53.3087 11.6293 53.794 11.752 54.338 11.752ZM60.8623 13V4.52H62.3343V6.824L62.1903 6.248C62.4249 5.66133 62.8196 5.21333 63.3743 4.904C63.9289 4.59467 64.6116 4.44 65.4223 4.44V5.928C65.3583 5.91733 65.2943 5.912 65.2303 5.912C65.1769 5.912 65.1236 5.912 65.0703 5.912C64.2489 5.912 63.5983 6.15733 63.1183 6.648C62.6383 7.13867 62.3983 7.848 62.3983 8.776V13H60.8623ZM75.2096 13.128C74.3563 13.128 73.5403 13 72.7616 12.744C71.983 12.4773 71.3696 12.136 70.9216 11.72L71.5136 10.472C71.9403 10.8453 72.4843 11.1547 73.1456 11.4C73.807 11.6453 74.495 11.768 75.2096 11.768C75.8603 11.768 76.3883 11.6933 76.7936 11.544C77.199 11.3947 77.4976 11.192 77.6896 10.936C77.8816 10.6693 77.9776 10.3707 77.9776 10.04C77.9776 9.656 77.8496 9.34667 77.5936 9.112C77.3483 8.87733 77.023 8.69067 76.6176 8.552C76.223 8.40267 75.7856 8.27467 75.3056 8.168C74.8256 8.06133 74.3403 7.93867 73.8496 7.8C73.3696 7.65067 72.927 7.464 72.5216 7.24C72.127 7.016 71.807 6.71733 71.5616 6.344C71.3163 5.96 71.1936 5.46933 71.1936 4.872C71.1936 4.296 71.343 3.768 71.6416 3.288C71.951 2.79733 72.4203 2.408 73.0496 2.12C73.6896 1.82133 74.5003 1.672 75.4816 1.672C76.1323 1.672 76.7776 1.75733 77.4176 1.928C78.0576 2.09867 78.6123 2.344 79.0816 2.664L78.5536 3.944C78.0736 3.624 77.567 3.39467 77.0336 3.256C76.5003 3.10667 75.983 3.032 75.4816 3.032C74.8523 3.032 74.335 3.112 73.9296 3.272C73.5243 3.432 73.2256 3.64533 73.0336 3.912C72.8523 4.17867 72.7616 4.47733 72.7616 4.808C72.7616 5.20267 72.8843 5.51733 73.1296 5.752C73.3856 5.98667 73.711 6.17333 74.1056 6.312C74.511 6.45067 74.9536 6.57867 75.4336 6.696C75.9136 6.80267 76.3936 6.92533 76.8736 7.064C77.3643 7.20267 77.807 7.384 78.2016 7.608C78.607 7.832 78.9323 8.13067 79.1776 8.504C79.423 8.87733 79.5456 9.35733 79.5456 9.944C79.5456 10.5093 79.391 11.0373 79.0816 11.528C78.7723 12.008 78.2923 12.3973 77.6416 12.696C77.0016 12.984 76.191 13.128 75.2096 13.128ZM81.6591 13V4.52H83.1951V13H81.6591ZM82.4271 2.888C82.1285 2.888 81.8778 2.792 81.6751 2.6C81.4831 2.408 81.3871 2.17333 81.3871 1.896C81.3871 1.608 81.4831 1.368 81.6751 1.176C81.8778 0.984 82.1285 0.888 82.4271 0.888C82.7258 0.888 82.9711 0.984 83.1631 1.176C83.3658 1.35733 83.4671 1.58667 83.4671 1.864C83.4671 2.152 83.3711 2.39733 83.1791 2.6C82.9871 2.792 82.7365 2.888 82.4271 2.888ZM89.8399 16.2C89.0612 16.2 88.3039 16.088 87.5679 15.864C86.8425 15.6507 86.2505 15.3413 85.7919 14.936L86.5279 13.752C86.9225 14.0933 87.4079 14.36 87.9839 14.552C88.5599 14.7547 89.1625 14.856 89.7919 14.856C90.7945 14.856 91.5305 14.6213 91.9999 14.152C92.4692 13.6827 92.7039 12.968 92.7039 12.008V10.216L92.8639 8.536L92.7839 6.84V4.52H94.2399V11.848C94.2399 13.3413 93.8665 14.44 93.1199 15.144C92.3732 15.848 91.2799 16.2 89.8399 16.2ZM89.6479 12.648C88.8265 12.648 88.0905 12.4773 87.4399 12.136C86.7999 11.784 86.2879 11.2987 85.9039 10.68C85.5305 10.0613 85.3439 9.34667 85.3439 8.536C85.3439 7.71467 85.5305 7 85.9039 6.392C86.2879 5.77333 86.7999 5.29333 87.4399 4.952C88.0905 4.61067 88.8265 4.44 89.6479 4.44C90.3732 4.44 91.0345 4.58933 91.6319 4.888C92.2292 5.176 92.7039 5.624 93.0559 6.232C93.4185 6.84 93.5999 7.608 93.5999 8.536C93.5999 9.45333 93.4185 10.216 93.0559 10.824C92.7039 11.432 92.2292 11.8907 91.6319 12.2C91.0345 12.4987 90.3732 12.648 89.6479 12.648ZM89.8239 11.304C90.3892 11.304 90.8905 11.1867 91.3279 10.952C91.7652 10.7173 92.1065 10.392 92.3519 9.976C92.6079 9.56 92.7359 9.08 92.7359 8.536C92.7359 7.992 92.6079 7.512 92.3519 7.096C92.1065 6.68 91.7652 6.36 91.3279 6.136C90.8905 5.90133 90.3892 5.784 89.8239 5.784C89.2585 5.784 88.7519 5.90133 88.3039 6.136C87.8665 6.36 87.5199 6.68 87.2639 7.096C87.0185 7.512 86.8959 7.992 86.8959 8.536C86.8959 9.08 87.0185 9.56 87.2639 9.976C87.5199 10.392 87.8665 10.7173 88.3039 10.952C88.7519 11.1867 89.2585 11.304 89.8239 11.304ZM101.703 4.44C102.396 4.44 103.004 4.57333 103.527 4.84C104.06 5.10667 104.476 5.512 104.775 6.056C105.073 6.6 105.223 7.288 105.223 8.12V13H103.687V8.296C103.687 7.47467 103.484 6.856 103.079 6.44C102.684 6.024 102.124 5.816 101.399 5.816C100.855 5.816 100.38 5.92267 99.9748 6.136C99.5694 6.34933 99.2548 6.664 99.0308 7.08C98.8174 7.496 98.7108 8.01333 98.7108 8.632V13H97.1748V4.52H98.6468V6.808L98.4068 6.2C98.6841 5.64533 99.1108 5.21333 99.6868 4.904C100.263 4.59467 100.935 4.44 101.703 4.44ZM111.633 13.096C110.908 13.096 110.268 12.9627 109.713 12.696C109.169 12.4293 108.743 12.024 108.433 11.48C108.135 10.9253 107.985 10.232 107.985 9.4V4.52H109.521V9.224C109.521 10.056 109.719 10.68 110.113 11.096C110.519 11.512 111.084 11.72 111.809 11.72C112.343 11.72 112.807 11.6133 113.201 11.4C113.596 11.176 113.9 10.856 114.113 10.44C114.327 10.0133 114.433 9.50133 114.433 8.904V4.52H115.969V13H114.513V10.712L114.753 11.32C114.476 11.8853 114.06 12.3227 113.505 12.632C112.951 12.9413 112.327 13.096 111.633 13.096ZM123.39 13.096C122.686 13.096 122.04 12.936 121.454 12.616C120.878 12.2853 120.414 11.8 120.062 11.16C119.72 10.52 119.549 9.72 119.549 8.76C119.549 7.8 119.715 7 120.046 6.36C120.387 5.72 120.846 5.24 121.422 4.92C122.008 4.6 122.664 4.44 123.39 4.44C124.222 4.44 124.958 4.62133 125.598 4.984C126.238 5.34667 126.744 5.85333 127.118 6.504C127.491 7.144 127.678 7.896 127.678 8.76C127.678 9.624 127.491 10.3813 127.118 11.032C126.744 11.6827 126.238 12.1893 125.598 12.552C124.958 12.9147 124.222 13.096 123.39 13.096ZM118.894 16.104V4.52H120.366V6.808L120.27 8.776L120.43 10.744V16.104H118.894ZM123.262 11.752C123.806 11.752 124.291 11.6293 124.718 11.384C125.155 11.1387 125.496 10.792 125.742 10.344C125.998 9.88533 126.126 9.35733 126.126 8.76C126.126 8.152 125.998 7.62933 125.742 7.192C125.496 6.744 125.155 6.39733 124.718 6.152C124.291 5.90667 123.806 5.784 123.262 5.784C122.728 5.784 122.243 5.90667 121.806 6.152C121.379 6.39733 121.038 6.744 120.782 7.192C120.536 7.62933 120.414 8.152 120.414 8.76C120.414 9.35733 120.536 9.88533 120.782 10.344C121.038 10.792 121.379 11.1387 121.806 11.384C122.243 11.6293 122.728 11.752 123.262 11.752Z" fill="black"/>
</svg>
