<svg width="43" height="52" viewBox="0 0 43 52" fill="none" xmlns="http://www.w3.org/2000/svg">
<path d="M41.579 36.8477C40.2434 34.3751 38.6515 29.6966 38.6515 21.4497V19.7671C38.6515 9.52675 31.0161 1.13481 21.6309 1.0598C21.587 1.05956 21.5435 1.05933 21.4998 1.05933C16.9456 1.06587 12.5803 3.01794 9.36415 6.48613C6.14802 9.95431 4.34452 14.6545 4.35036 19.5529V21.4496C4.35036 29.6964 2.75754 34.3744 1.42111 36.847C1.14748 37.351 1.00224 37.9237 1.00003 38.5073C0.997813 39.0909 1.13871 39.6648 1.40851 40.1712C1.67831 40.6775 2.06748 41.0984 2.53676 41.3914C3.00605 41.6844 3.53886 41.8391 4.08148 41.84H13.1233V42.3142C13.1233 44.7037 14.0058 46.9953 15.5768 48.685C17.1477 50.3746 19.2784 51.3238 21.5001 51.3238C23.7217 51.3238 25.8524 50.3746 27.4233 48.685C28.9943 46.9953 29.8768 44.7037 29.8768 42.3142V41.84H38.9186C39.4612 41.8392 39.994 41.6845 40.4632 41.3916C40.9325 41.0987 41.3216 40.6778 41.5914 40.1716C41.8612 39.6653 42.0022 39.0914 42 38.5079C41.9978 37.9243 41.8526 37.3517 41.579 36.8477V36.8477ZM27.2315 42.3142C27.2315 43.9491 26.6277 45.5171 25.5528 46.6731C24.478 47.8292 23.0201 48.4787 21.5001 48.4787C19.98 48.4787 18.5221 47.8292 17.4473 46.6731C16.3724 45.5171 15.7686 43.9491 15.7686 42.3142V41.84H27.2315V42.3142ZM39.2938 38.761C39.2571 38.833 39.2027 38.8929 39.1365 38.9341C39.0704 38.9754 38.995 38.9963 38.9186 38.9948H4.08148C4.00502 38.9963 3.92964 38.9754 3.86347 38.9341C3.7973 38.8929 3.74286 38.833 3.70604 38.761C3.66526 38.6877 3.6439 38.6039 3.64428 38.5186C3.64466 38.4332 3.66676 38.3496 3.70819 38.2768C5.2078 35.502 6.99566 30.3301 6.99566 21.4497V19.5529C6.98984 15.409 8.51474 11.4324 11.2349 8.49775C13.9551 5.56312 17.6477 3.91089 21.5005 3.90449C21.5371 3.90449 21.5745 3.90473 21.6111 3.90497C29.5486 3.96841 36.0062 11.0841 36.0062 19.7671V21.4497C36.0062 30.3301 37.793 35.502 39.2919 38.2771C39.3333 38.3498 39.3553 38.4334 39.3556 38.5187C39.356 38.604 39.3346 38.6878 39.2938 38.761V38.761Z" fill="black" stroke="black"/>
</svg>
