<svg width="61" height="67" viewBox="0 0 61 67" fill="none" xmlns="http://www.w3.org/2000/svg">
<path d="M60.6523 33.5531C60.6555 28.0975 59.3982 22.7273 56.9945 17.9298C54.5908 13.1322 51.1167 9.05896 46.8874 6.07962C42.658 3.10029 37.8073 1.30909 32.7752 0.868516C27.743 0.427941 22.6887 1.35193 18.0707 3.55666C13.4527 5.76139 9.41709 9.17711 6.33001 13.494C3.24293 17.8108 1.20203 22.8922 0.392451 28.2772C-0.417131 33.6623 0.0302182 39.1805 1.69392 44.3314C3.35762 49.4823 6.18503 54.1028 9.91967 57.7739C9.99351 57.8686 10.0795 57.9515 10.175 58.02C15.7206 63.3682 22.8936 66.324 30.3266 66.3239C37.7595 66.3238 44.9325 63.3677 50.4779 58.0194C50.5729 57.9511 50.6585 57.8687 50.7321 57.7744C53.8579 54.7084 56.3553 50.9695 58.0638 46.798C59.7723 42.6265 60.654 38.1149 60.6523 33.5531V33.5531ZM2.42609 33.5531C2.4229 28.5965 3.55066 23.7155 5.70952 19.3422C7.86838 14.9689 10.9917 11.2382 14.8031 8.48041C18.6145 5.72264 22.9963 4.02286 27.5605 3.53153C32.1248 3.04021 36.7308 3.7725 40.9707 5.66359C45.2106 7.55467 48.9537 10.5462 51.8685 14.3734C54.7833 18.2005 56.78 22.7452 57.6817 27.6051C58.5834 32.465 58.3624 37.4902 57.0383 42.2358C55.7141 46.9814 53.3276 51.301 50.0901 54.8122C47.0789 49.3631 42.2477 45.3703 36.5926 43.6569C39.2209 42.146 41.3062 39.7288 42.5167 36.7898C43.7272 33.8507 43.9934 30.5586 43.273 27.4372C42.5525 24.3158 40.8868 21.5444 38.5407 19.5639C36.1947 17.5834 33.3032 16.5076 30.3261 16.5076C27.3491 16.5076 24.4575 17.5834 22.1115 19.5639C19.7655 21.5444 18.0997 24.3158 17.3793 27.4372C16.6588 30.5586 16.925 33.8507 18.1355 36.7898C19.346 39.7288 21.4313 42.146 24.0597 43.6569C18.4046 45.3703 13.5734 49.363 10.5622 54.812C7.98051 52.0195 5.93321 48.7048 4.53721 45.0571C3.14121 41.4095 2.42384 37.5004 2.42609 33.5531V33.5531ZM30.3261 42.7289C28.1669 42.7289 26.0561 42.037 24.2607 40.7407C22.4654 39.4444 21.0661 37.6019 20.2398 35.4462C19.4134 33.2904 19.1972 30.9184 19.6185 28.6299C20.0397 26.3414 21.0795 24.2393 22.6064 22.5894C24.1332 20.9395 26.0785 19.8159 28.1962 19.3607C30.314 18.9055 32.5091 19.1391 34.504 20.032C36.4989 20.9249 38.204 22.437 39.4036 24.3771C40.6032 26.3172 41.2435 28.5981 41.2435 30.9315C41.2403 34.0593 40.089 37.0579 38.0423 39.2696C35.9956 41.4813 33.2206 42.7254 30.3261 42.7289V42.7289ZM12.3927 56.6293C14.1931 53.2047 16.8011 50.3567 19.9513 48.3755C23.1015 46.3943 26.6812 45.3506 30.3261 45.3506C33.971 45.3506 37.5507 46.3944 40.7009 48.3756C43.851 50.3569 46.4591 53.2048 48.2594 56.6295C43.2398 61.1973 36.8884 63.7023 30.326 63.7022C23.7637 63.7022 17.4122 61.1972 12.3927 56.6293V56.6293Z" fill="black"/>
</svg>
