<svg width="51" height="56" viewBox="0 0 51 56" fill="none" xmlns="http://www.w3.org/2000/svg">
<path d="M47.7178 33.7885L50.5956 15.5769C50.6877 14.9937 50.6673 14.3943 50.536 13.8211C50.4046 13.248 50.1654 12.715 49.8353 12.2599C49.5052 11.8048 49.0922 11.4387 48.6256 11.1875C48.159 10.9363 47.6501 10.806 47.1349 10.806H10.261L9.18741 4.01162C9.04041 3.07894 8.61339 2.23528 7.98089 1.62791C7.3484 1.02055 6.55061 0.688057 5.72678 0.688477H1.75865C1.29223 0.688477 0.844908 0.901667 0.515097 1.28115C0.185286 1.66063 0 2.17531 0 2.71198C0 3.24865 0.185286 3.76333 0.515097 4.14281C0.844908 4.52229 1.29223 4.73548 1.75865 4.73548H5.72678L11.5967 41.8824C11.6492 42.211 11.7369 42.5309 11.8577 42.8347C10.9796 43.6883 10.3269 44.8079 9.97349 46.0665C9.62009 47.3251 9.58016 48.6725 9.85821 49.9559C10.1363 51.2393 10.7212 52.4074 11.5467 53.3279C12.3722 54.2484 13.4053 54.8844 14.5289 55.1639C15.6524 55.4434 16.8216 55.3552 17.9039 54.9094C18.9861 54.4635 19.9382 53.6777 20.6522 52.6411C21.3662 51.6045 21.8136 50.3585 21.9436 49.0443C22.0737 47.7301 21.8812 46.4003 21.3881 45.2056H36.6474C36.076 46.592 35.9114 48.1545 36.1784 49.6578C36.4454 51.1612 37.1296 52.5241 38.1279 53.5414C39.1263 54.5587 40.3849 55.1754 41.7141 55.2986C43.0434 55.4218 44.3715 55.0449 45.4986 54.2246C46.6256 53.4043 47.4906 52.1849 47.9633 50.7501C48.436 49.3153 48.4909 47.7427 48.1197 46.2689C47.7485 44.7951 46.9713 43.4999 45.905 42.5783C44.8388 41.6566 43.5412 41.1584 42.2076 41.1586H15.0574L14.4178 37.1115H44.2572C45.081 37.112 45.8788 36.7795 46.5112 36.1721C47.1437 35.5648 47.5708 34.7212 47.7178 33.7885ZM18.4658 48.2408C18.4658 48.8411 18.3111 49.428 18.0213 49.9271C17.7314 50.4263 17.3194 50.8153 16.8374 51.045C16.3553 51.2748 15.8249 51.3349 15.3132 51.2177C14.8015 51.1006 14.3315 50.8116 13.9625 50.3871C13.5936 49.9626 13.3424 49.4217 13.2406 48.833C13.1388 48.2442 13.191 47.6339 13.3907 47.0793C13.5903 46.5247 13.9285 46.0506 14.3623 45.7171C14.7961 45.3836 15.3061 45.2056 15.8279 45.2056C16.5273 45.2065 17.1978 45.5265 17.6923 46.0956C18.1869 46.6646 18.4651 47.4361 18.4658 48.2408V48.2408ZM44.8456 48.2408C44.8456 48.8411 44.6909 49.428 44.401 49.9271C44.1112 50.4263 43.6992 50.8153 43.2171 51.045C42.7351 51.2748 42.2047 51.3349 41.693 51.2177C41.1813 51.1006 40.7112 50.8116 40.3423 50.3871C39.9734 49.9626 39.7221 49.4217 39.6203 48.833C39.5186 48.2442 39.5708 47.6339 39.7705 47.0793C39.9701 46.5247 40.3082 46.0506 40.742 45.7171C41.1759 45.3836 41.6859 45.2056 42.2076 45.2056C42.907 45.2065 43.5775 45.5265 44.0721 46.0956C44.5666 46.6646 44.8448 47.4361 44.8456 48.2408V48.2408ZM10.9005 14.853H47.1349L44.2572 33.0645H13.7783L10.9005 14.853Z" fill="black"/>
</svg>
