<svg width="134" height="50" viewBox="0 0 134 50" fill="none" xmlns="http://www.w3.org/2000/svg">
<path d="M0.45 0.999999H3.63L5.1 17.14H5.16L6.72 0.999999H10.32L11.88 17.14H11.94L13.41 0.999999H16.26L14.13 22H10.02L8.52 7.84H8.46L6.96 22H2.58L0.45 0.999999ZM17.9292 0.999999H26.9292V4H21.2292V9.55H25.7592V12.55H21.2292V19H26.9292V22H17.9292V0.999999ZM28.8277 0.999999H32.1277V19H37.5577V22H28.8277V0.999999ZM43.673 22.3C42.093 22.3 40.883 21.85 40.043 20.95C39.223 20.05 38.813 18.78 38.813 17.14V5.86C38.813 4.22 39.223 2.95 40.043 2.05C40.883 1.15 42.093 0.699999 43.673 0.699999C45.253 0.699999 46.453 1.15 47.273 2.05C48.113 2.95 48.533 4.22 48.533 5.86V8.08H45.413V5.65C45.413 4.35 44.863 3.7 43.763 3.7C42.663 3.7 42.113 4.35 42.113 5.65V17.38C42.113 18.66 42.663 19.3 43.763 19.3C44.863 19.3 45.413 18.66 45.413 17.38V14.17H48.533V17.14C48.533 18.78 48.113 20.05 47.273 20.95C46.453 21.85 45.253 22.3 43.673 22.3ZM55.3359 22.3C53.7159 22.3 52.4759 21.84 51.6159 20.92C50.7559 20 50.3259 18.7 50.3259 17.02V5.98C50.3259 4.3 50.7559 3 51.6159 2.08C52.4759 1.16 53.7159 0.699999 55.3359 0.699999C56.9559 0.699999 58.1959 1.16 59.0559 2.08C59.9159 3 60.3459 4.3 60.3459 5.98V17.02C60.3459 18.7 59.9159 20 59.0559 20.92C58.1959 21.84 56.9559 22.3 55.3359 22.3ZM55.3359 19.3C56.4759 19.3 57.0459 18.61 57.0459 17.23V5.77C57.0459 4.39 56.4759 3.7 55.3359 3.7C54.1959 3.7 53.6259 4.39 53.6259 5.77V17.23C53.6259 18.61 54.1959 19.3 55.3359 19.3ZM62.5777 0.999999H67.2877L69.3877 16.03H69.4477L71.5477 0.999999H76.2577V22H73.1377V6.1H73.0777L70.6777 22H67.9177L65.5177 6.1H65.4577V22H62.5777V0.999999ZM78.7202 0.999999H87.7202V4H82.0202V9.55H86.5502V12.55H82.0202V19H87.7202V22H78.7202V0.999999ZM89.8887 9.76V0.999999H93.1887V9.76L92.7687 16.45H90.3087L89.8887 9.76ZM89.9487 18.82H93.1287V22H89.9487V18.82Z" fill="black"/>
<path d="M1.68 44V32.8H3.28V42.608H9.344V44H1.68ZM14.4786 44.096C13.6253 44.096 12.868 43.9093 12.2066 43.536C11.5453 43.1627 11.0226 42.6507 10.6386 42C10.2546 41.3387 10.0626 40.592 10.0626 39.76C10.0626 38.9173 10.2546 38.1707 10.6386 37.52C11.0226 36.8693 11.5453 36.3627 12.2066 36C12.868 35.6267 13.6253 35.44 14.4786 35.44C15.3213 35.44 16.0733 35.6267 16.7346 36C17.4066 36.3627 17.9293 36.8693 18.3026 37.52C18.6866 38.16 18.8786 38.9067 18.8786 39.76C18.8786 40.6027 18.6866 41.3493 18.3026 42C17.9293 42.6507 17.4066 43.1627 16.7346 43.536C16.0733 43.9093 15.3213 44.096 14.4786 44.096ZM14.4786 42.752C15.0226 42.752 15.508 42.6293 15.9346 42.384C16.372 42.1387 16.7133 41.792 16.9586 41.344C17.204 40.8853 17.3266 40.3573 17.3266 39.76C17.3266 39.152 17.204 38.6293 16.9586 38.192C16.7133 37.744 16.372 37.3973 15.9346 37.152C15.508 36.9067 15.0226 36.784 14.4786 36.784C13.9346 36.784 13.4493 36.9067 13.0226 37.152C12.596 37.3973 12.2546 37.744 11.9986 38.192C11.7426 38.6293 11.6146 39.152 11.6146 39.76C11.6146 40.3573 11.7426 40.8853 11.9986 41.344C12.2546 41.792 12.596 42.1387 13.0226 42.384C13.4493 42.6293 13.9346 42.752 14.4786 42.752ZM24.7149 47.2C23.9362 47.2 23.1789 47.088 22.4429 46.864C21.7175 46.6507 21.1255 46.3413 20.6669 45.936L21.4029 44.752C21.7975 45.0933 22.2829 45.36 22.8589 45.552C23.4349 45.7547 24.0375 45.856 24.6669 45.856C25.6695 45.856 26.4055 45.6213 26.8749 45.152C27.3442 44.6827 27.5789 43.968 27.5789 43.008V41.216L27.7389 39.536L27.6589 37.84V35.52H29.1149V42.848C29.1149 44.3413 28.7415 45.44 27.9949 46.144C27.2482 46.848 26.1549 47.2 24.7149 47.2ZM24.5229 43.648C23.7015 43.648 22.9655 43.4773 22.3149 43.136C21.6749 42.784 21.1629 42.2987 20.7789 41.68C20.4055 41.0613 20.2189 40.3467 20.2189 39.536C20.2189 38.7147 20.4055 38 20.7789 37.392C21.1629 36.7733 21.6749 36.2933 22.3149 35.952C22.9655 35.6107 23.7015 35.44 24.5229 35.44C25.2482 35.44 25.9095 35.5893 26.5069 35.888C27.1042 36.176 27.5789 36.624 27.9309 37.232C28.2935 37.84 28.4749 38.608 28.4749 39.536C28.4749 40.4533 28.2935 41.216 27.9309 41.824C27.5789 42.432 27.1042 42.8907 26.5069 43.2C25.9095 43.4987 25.2482 43.648 24.5229 43.648ZM24.6989 42.304C25.2642 42.304 25.7655 42.1867 26.2029 41.952C26.6402 41.7173 26.9815 41.392 27.2269 40.976C27.4829 40.56 27.6109 40.08 27.6109 39.536C27.6109 38.992 27.4829 38.512 27.2269 38.096C26.9815 37.68 26.6402 37.36 26.2029 37.136C25.7655 36.9013 25.2642 36.784 24.6989 36.784C24.1335 36.784 23.6269 36.9013 23.1789 37.136C22.7415 37.36 22.3949 37.68 22.1389 38.096C21.8935 38.512 21.7709 38.992 21.7709 39.536C21.7709 40.08 21.8935 40.56 22.1389 40.976C22.3949 41.392 22.7415 41.7173 23.1789 41.952C23.6269 42.1867 24.1335 42.304 24.6989 42.304ZM32.0498 44V35.52H33.5858V44H32.0498ZM32.8178 33.888C32.5191 33.888 32.2684 33.792 32.0658 33.6C31.8738 33.408 31.7778 33.1733 31.7778 32.896C31.7778 32.608 31.8738 32.368 32.0658 32.176C32.2684 31.984 32.5191 31.888 32.8178 31.888C33.1164 31.888 33.3618 31.984 33.5538 32.176C33.7564 32.3573 33.8578 32.5867 33.8578 32.864C33.8578 33.152 33.7618 33.3973 33.5698 33.6C33.3778 33.792 33.1271 33.888 32.8178 33.888ZM41.0465 35.44C41.7398 35.44 42.3478 35.5733 42.8705 35.84C43.4038 36.1067 43.8198 36.512 44.1185 37.056C44.4172 37.6 44.5665 38.288 44.5665 39.12V44H43.0305V39.296C43.0305 38.4747 42.8278 37.856 42.4225 37.44C42.0278 37.024 41.4678 36.816 40.7425 36.816C40.1985 36.816 39.7238 36.9227 39.3185 37.136C38.9132 37.3493 38.5985 37.664 38.3745 38.08C38.1612 38.496 38.0545 39.0133 38.0545 39.632V44H36.5185V35.52H37.9905V37.808L37.7505 37.2C38.0278 36.6453 38.4545 36.2133 39.0305 35.904C39.6065 35.5947 40.2785 35.44 41.0465 35.44ZM55.338 44.096C54.4847 44.096 53.7273 43.9093 53.066 43.536C52.4047 43.1627 51.882 42.6507 51.498 42C51.114 41.3387 50.922 40.592 50.922 39.76C50.922 38.9173 51.114 38.1707 51.498 37.52C51.882 36.8693 52.4047 36.3627 53.066 36C53.7273 35.6267 54.4847 35.44 55.338 35.44C56.1807 35.44 56.9327 35.6267 57.594 36C58.266 36.3627 58.7887 36.8693 59.162 37.52C59.546 38.16 59.738 38.9067 59.738 39.76C59.738 40.6027 59.546 41.3493 59.162 42C58.7887 42.6507 58.266 43.1627 57.594 43.536C56.9327 43.9093 56.1807 44.096 55.338 44.096ZM55.338 42.752C55.882 42.752 56.3673 42.6293 56.794 42.384C57.2313 42.1387 57.5727 41.792 57.818 41.344C58.0633 40.8853 58.186 40.3573 58.186 39.76C58.186 39.152 58.0633 38.6293 57.818 38.192C57.5727 37.744 57.2313 37.3973 56.794 37.152C56.3673 36.9067 55.882 36.784 55.338 36.784C54.794 36.784 54.3087 36.9067 53.882 37.152C53.4553 37.3973 53.114 37.744 52.858 38.192C52.602 38.6293 52.474 39.152 52.474 39.76C52.474 40.3573 52.602 40.8853 52.858 41.344C53.114 41.792 53.4553 42.1387 53.882 42.384C54.3087 42.6293 54.794 42.752 55.338 42.752ZM61.8623 44V35.52H63.3343V37.824L63.1903 37.248C63.4249 36.6613 63.8196 36.2133 64.3743 35.904C64.9289 35.5947 65.6116 35.44 66.4223 35.44V36.928C66.3583 36.9173 66.2943 36.912 66.2303 36.912C66.1769 36.912 66.1236 36.912 66.0703 36.912C65.2489 36.912 64.5983 37.1573 64.1183 37.648C63.6383 38.1387 63.3983 38.848 63.3983 39.776V44H61.8623ZM76.2096 44.128C75.3563 44.128 74.5403 44 73.7616 43.744C72.983 43.4773 72.3696 43.136 71.9216 42.72L72.5136 41.472C72.9403 41.8453 73.4843 42.1547 74.1456 42.4C74.807 42.6453 75.495 42.768 76.2096 42.768C76.8603 42.768 77.3883 42.6933 77.7936 42.544C78.199 42.3947 78.4976 42.192 78.6896 41.936C78.8816 41.6693 78.9776 41.3707 78.9776 41.04C78.9776 40.656 78.8496 40.3467 78.5936 40.112C78.3483 39.8773 78.023 39.6907 77.6176 39.552C77.223 39.4027 76.7856 39.2747 76.3056 39.168C75.8256 39.0613 75.3403 38.9387 74.8496 38.8C74.3696 38.6507 73.927 38.464 73.5216 38.24C73.127 38.016 72.807 37.7173 72.5616 37.344C72.3163 36.96 72.1936 36.4693 72.1936 35.872C72.1936 35.296 72.343 34.768 72.6416 34.288C72.951 33.7973 73.4203 33.408 74.0496 33.12C74.6896 32.8213 75.5003 32.672 76.4816 32.672C77.1323 32.672 77.7776 32.7573 78.4176 32.928C79.0576 33.0987 79.6123 33.344 80.0816 33.664L79.5536 34.944C79.0736 34.624 78.567 34.3947 78.0336 34.256C77.5003 34.1067 76.983 34.032 76.4816 34.032C75.8523 34.032 75.335 34.112 74.9296 34.272C74.5243 34.432 74.2256 34.6453 74.0336 34.912C73.8523 35.1787 73.7616 35.4773 73.7616 35.808C73.7616 36.2027 73.8843 36.5173 74.1296 36.752C74.3856 36.9867 74.711 37.1733 75.1056 37.312C75.511 37.4507 75.9536 37.5787 76.4336 37.696C76.9136 37.8027 77.3936 37.9253 77.8736 38.064C78.3643 38.2027 78.807 38.384 79.2016 38.608C79.607 38.832 79.9323 39.1307 80.1776 39.504C80.423 39.8773 80.5456 40.3573 80.5456 40.944C80.5456 41.5093 80.391 42.0373 80.0816 42.528C79.7723 43.008 79.2923 43.3973 78.6416 43.696C78.0016 43.984 77.191 44.128 76.2096 44.128ZM82.6591 44V35.52H84.1951V44H82.6591ZM83.4271 33.888C83.1285 33.888 82.8778 33.792 82.6751 33.6C82.4831 33.408 82.3871 33.1733 82.3871 32.896C82.3871 32.608 82.4831 32.368 82.6751 32.176C82.8778 31.984 83.1285 31.888 83.4271 31.888C83.7258 31.888 83.9711 31.984 84.1631 32.176C84.3658 32.3573 84.4671 32.5867 84.4671 32.864C84.4671 33.152 84.3711 33.3973 84.1791 33.6C83.9871 33.792 83.7365 33.888 83.4271 33.888ZM90.8399 47.2C90.0612 47.2 89.3039 47.088 88.5679 46.864C87.8425 46.6507 87.2505 46.3413 86.7919 45.936L87.5279 44.752C87.9225 45.0933 88.4079 45.36 88.9839 45.552C89.5599 45.7547 90.1625 45.856 90.7919 45.856C91.7945 45.856 92.5305 45.6213 92.9999 45.152C93.4692 44.6827 93.7039 43.968 93.7039 43.008V41.216L93.8639 39.536L93.7839 37.84V35.52H95.2399V42.848C95.2399 44.3413 94.8665 45.44 94.1199 46.144C93.3732 46.848 92.2799 47.2 90.8399 47.2ZM90.6479 43.648C89.8265 43.648 89.0905 43.4773 88.4399 43.136C87.7999 42.784 87.2879 42.2987 86.9039 41.68C86.5305 41.0613 86.3439 40.3467 86.3439 39.536C86.3439 38.7147 86.5305 38 86.9039 37.392C87.2879 36.7733 87.7999 36.2933 88.4399 35.952C89.0905 35.6107 89.8265 35.44 90.6479 35.44C91.3732 35.44 92.0345 35.5893 92.6319 35.888C93.2292 36.176 93.7039 36.624 94.0559 37.232C94.4185 37.84 94.5999 38.608 94.5999 39.536C94.5999 40.4533 94.4185 41.216 94.0559 41.824C93.7039 42.432 93.2292 42.8907 92.6319 43.2C92.0345 43.4987 91.3732 43.648 90.6479 43.648ZM90.8239 42.304C91.3892 42.304 91.8905 42.1867 92.3279 41.952C92.7652 41.7173 93.1065 41.392 93.3519 40.976C93.6079 40.56 93.7359 40.08 93.7359 39.536C93.7359 38.992 93.6079 38.512 93.3519 38.096C93.1065 37.68 92.7652 37.36 92.3279 37.136C91.8905 36.9013 91.3892 36.784 90.8239 36.784C90.2585 36.784 89.7519 36.9013 89.3039 37.136C88.8665 37.36 88.5199 37.68 88.2639 38.096C88.0185 38.512 87.8959 38.992 87.8959 39.536C87.8959 40.08 88.0185 40.56 88.2639 40.976C88.5199 41.392 88.8665 41.7173 89.3039 41.952C89.7519 42.1867 90.2585 42.304 90.8239 42.304ZM102.703 35.44C103.396 35.44 104.004 35.5733 104.527 35.84C105.06 36.1067 105.476 36.512 105.775 37.056C106.073 37.6 106.223 38.288 106.223 39.12V44H104.687V39.296C104.687 38.4747 104.484 37.856 104.079 37.44C103.684 37.024 103.124 36.816 102.399 36.816C101.855 36.816 101.38 36.9227 100.975 37.136C100.569 37.3493 100.255 37.664 100.031 38.08C99.8174 38.496 99.7108 39.0133 99.7108 39.632V44H98.1748V35.52H99.6468V37.808L99.4068 37.2C99.6841 36.6453 100.111 36.2133 100.687 35.904C101.263 35.5947 101.935 35.44 102.703 35.44ZM112.633 44.096C111.908 44.096 111.268 43.9627 110.713 43.696C110.169 43.4293 109.743 43.024 109.433 42.48C109.135 41.9253 108.985 41.232 108.985 40.4V35.52H110.521V40.224C110.521 41.056 110.719 41.68 111.113 42.096C111.519 42.512 112.084 42.72 112.809 42.72C113.343 42.72 113.807 42.6133 114.201 42.4C114.596 42.176 114.9 41.856 115.113 41.44C115.327 41.0133 115.433 40.5013 115.433 39.904V35.52H116.969V44H115.513V41.712L115.753 42.32C115.476 42.8853 115.06 43.3227 114.505 43.632C113.951 43.9413 113.327 44.096 112.633 44.096ZM124.39 44.096C123.686 44.096 123.04 43.936 122.454 43.616C121.878 43.2853 121.414 42.8 121.062 42.16C120.72 41.52 120.549 40.72 120.549 39.76C120.549 38.8 120.715 38 121.046 37.36C121.387 36.72 121.846 36.24 122.422 35.92C123.008 35.6 123.664 35.44 124.39 35.44C125.222 35.44 125.958 35.6213 126.598 35.984C127.238 36.3467 127.744 36.8533 128.118 37.504C128.491 38.144 128.678 38.896 128.678 39.76C128.678 40.624 128.491 41.3813 128.118 42.032C127.744 42.6827 127.238 43.1893 126.598 43.552C125.958 43.9147 125.222 44.096 124.39 44.096ZM119.894 47.104V35.52H121.366V37.808L121.27 39.776L121.43 41.744V47.104H119.894ZM124.262 42.752C124.806 42.752 125.291 42.6293 125.718 42.384C126.155 42.1387 126.496 41.792 126.742 41.344C126.998 40.8853 127.126 40.3573 127.126 39.76C127.126 39.152 126.998 38.6293 126.742 38.192C126.496 37.744 126.155 37.3973 125.718 37.152C125.291 36.9067 124.806 36.784 124.262 36.784C123.728 36.784 123.243 36.9067 122.806 37.152C122.379 37.3973 122.038 37.744 121.782 38.192C121.536 38.6293 121.414 39.152 121.414 39.76C121.414 40.3573 121.536 40.8853 121.782 41.344C122.038 41.792 122.379 42.1387 122.806 42.384C123.243 42.6293 123.728 42.752 124.262 42.752Z" fill="black"/>
</svg>
